<?xml version="1.0" encoding="utf-8"?>
<!-- Generator: Adobe Illustrator 18.1.0, SVG Export Plug-In . SVG Version: 6.00 Build 0)  -->
<svg version="1.1" id="Capa_1" xmlns="http://www.w3.org/2000/svg" xmlns:xlink="http://www.w3.org/1999/xlink" x="0px" y="0px"
	 viewBox="0 0 500 487.7" enable-background="new 0 0 500 487.7" xml:space="preserve">
<g>
	<g>
		<g>
			<polygon fill="#BADBA6" points="202.4,66.2 249.9,112.6 217.2,112.7 			"/>
			<polygon fill="#A4D38D" points="249.9,112.6 202.4,66.2 249.8,66.1 			"/>
			<polyline fill="#80BC6C" points="297.2,66 249.8,66.1 249.9,112.6 			"/>
			<polygon fill="#6EAA5D" points="297.2,66 249.9,112.6 282.5,112.6 			"/>
		</g>
		<g>
			<polygon fill="#6EAA5D" points="249.7,5 251.4,5 250.7,37.6 249,37.6 			"/>
			<polygon fill="#6EAA5D" points="242.1,8.5 258.9,8.3 250.6,0 242.1,8.5 			"/>
		</g>
		<g>
			<path fill="#6EAA5D" d="M221.6,49.5v6.1h-1.1V42.1h4.6c1.5,0,2.6,0.3,3.4,1c0.8,0.6,1.2,1.6,1.2,2.8c0,0.7-0.2,1.4-0.6,1.9
				s-1,1-1.8,1.2c0.9,0.2,1.5,0.6,1.8,1.1c0.4,0.5,0.6,1.2,0.6,2v1.3c0,0.4,0.1,0.8,0.2,1.1s0.3,0.6,0.5,0.8v0.2h-1.2
				c-0.2-0.2-0.4-0.5-0.5-0.9s-0.1-0.8-0.1-1.3v-1.2c0-0.8-0.3-1.5-0.8-2c-0.5-0.5-1.3-0.7-2.3-0.7H221.6z M221.6,48.6h3.3
				c1.2,0,2.2-0.2,2.7-0.7c0.6-0.5,0.9-1.2,0.9-2c0-0.9-0.3-1.6-0.9-2.1c-0.6-0.5-1.4-0.7-2.6-0.7h-3.5V48.6z"/>
			<path fill="#6EAA5D" d="M240.5,49.1h-6.2v5.6h7.2v0.9h-8.3V42.1h8.2v0.9h-7.1v5.1h6.2V49.1z"/>
			<path fill="#6EAA5D" d="M251.6,52.4c0-0.7-0.3-1.3-0.8-1.7c-0.6-0.5-1.5-0.9-2.9-1.3c-1.5-0.4-2.6-0.9-3.4-1.5
				c-0.8-0.6-1.2-1.4-1.2-2.4c0-1,0.4-1.9,1.3-2.6c0.9-0.7,2-1,3.3-1c1.4,0,2.5,0.4,3.4,1.1c0.9,0.8,1.3,1.7,1.2,2.9l0,0.1h-1.1
				c0-0.9-0.3-1.6-1-2.2c-0.7-0.6-1.5-0.9-2.6-0.9c-1.1,0-1.9,0.2-2.5,0.7c-0.6,0.5-0.9,1.1-0.9,1.8c0,0.7,0.3,1.3,0.8,1.7
				c0.6,0.4,1.5,0.9,2.9,1.2c1.5,0.4,2.6,0.9,3.3,1.5c0.8,0.6,1.1,1.4,1.1,2.4c0,1.1-0.4,1.9-1.3,2.5c-0.9,0.6-2,1-3.4,1
				c-1.4,0-2.5-0.3-3.6-1c-1-0.7-1.5-1.7-1.5-3l0-0.1h1.1c0,1,0.4,1.8,1.2,2.3s1.7,0.8,2.7,0.8c1.1,0,1.9-0.2,2.6-0.7
				C251.3,53.7,251.6,53.1,251.6,52.4z"/>
			<path fill="#6EAA5D" d="M265.3,42.1v9c0,1.5-0.5,2.6-1.4,3.5s-2.1,1.3-3.6,1.3c-1.4,0-2.6-0.4-3.5-1.3c-0.9-0.8-1.4-2-1.4-3.5v-9
				h1.1v9c0,1.2,0.4,2.1,1.1,2.8s1.6,1,2.7,1c1.1,0,2-0.3,2.8-1c0.7-0.7,1.1-1.6,1.1-2.8v-9H265.3z"/>
			<path fill="#6EAA5D" d="M269.7,54.7h7.1v0.9h-8.3V42.1h1.1V54.7z"/>
			<path fill="#6EAA5D" d="M286,43.1h-4.7v12.6h-1.1V43.1h-4.9v-0.9H286V43.1z"/>
		</g>
	</g>
	<g>
		<g id="layer1_2_" transform="translate(0,-1064)">
			<g id="g3008_1_" transform="matrix(0.53851907,0,0,0.53851907,-44.427823,778.15408)">
				<path id="rect18662_2_" fill="#C95064" d="M778.7,740.3H314.4L82.5,972.2l464.2,464.2l464.2-464.2L778.7,740.3z"/>
				<path id="path18706_2_" fill="#C95064" d="M314.6,740.3L82.7,972.2h464.2l0,0l-134-135.4L317.1,741c0.3,0,0.5,0,0.9,0l-0.9-0.9
					h-2.4v0.2H314.6z"/>
				<path id="path18689_2_" fill="#D76B7C" d="M546.7,972.2h464.2L778.7,740.3h-2.3c-0.3,0.3-0.5,0.7-0.9,0.9c0.3,0,0.5,0,0.9,0
					c-31.9,31.9-63.9,63.9-95.8,95.8C636,882,591.3,927.3,546.7,972.2L546.7,972.2L546.7,972.2z"/>
				<path id="path18687_2_" fill="#CC4856" d="M316.7,740.3l230,231.9c76.6-77.3,153.1-154.7,230-231.9
					C623.3,740.3,470,740.3,316.7,740.3L316.7,740.3z"/>
				<polygon id="polygon9_1_" fill="#A1233E" points="314.6,1204.4 546.7,1436.3 546.7,972.2 546.7,972.2 546.7,972.2 546.7,972.2 
					82.5,972.2 				"/>
			</g>
		</g>
		<g>
			<path fill="#E2697B" d="M231.6,158.4l-12.5-12.4l-11.9,11.8v19.9h3v-15.7l18.2,18.1l2.1-2.1l-9.3-9.3L231.6,158.4z M227.4,158.4
				l-8.2,8.2l-8.2-8.2l8.2-8.2L227.4,158.4z"/>
			<polygon fill="#E2697B" points="258.5,148.1 258.3,168.1 249.8,176.3 240.7,168.2 240.6,148.5 237.2,148.4 237.2,169.4 
				250,181.1 261.8,169.4 261.8,148.1 			"/>
			<polygon fill="#E2697B" points="292.7,148.2 289.8,148.2 289.8,157.9 280.5,166.7 271.2,157.9 271.2,148.7 268.2,148.7 
				268.2,159.1 278.4,168.8 269.4,178 271.6,180.1 281.3,170.5 292.6,159.1 			"/>
		</g>
	</g>
	<g>
		<g>
			<path fill="#27A6D7" d="M60.9,387.4L60.9,387.4c-0.8,0.9-1.7,1.2-2.7,1.2c-1-0.1-1.9-0.5-2.8-1.4c-0.9-0.9-1.3-2-1.2-3.2
				c0.1-1.2,0.7-2.3,1.7-3.4l1.3-1.3c1-1,2.1-1.6,3.3-1.7c1.2-0.1,2.2,0.3,3.1,1.2c0.9,0.9,1.3,1.8,1.4,2.8c0.1,1-0.3,1.9-1.1,2.7
				l0,0l-0.6-0.6c0.6-0.7,0.9-1.4,0.9-2.1c0-0.8-0.4-1.5-1.1-2.2c-0.7-0.7-1.5-1-2.5-0.9c-1,0.1-1.9,0.6-2.7,1.5l-1.3,1.3
				c-0.9,0.9-1.3,1.8-1.5,2.8c-0.1,1,0.2,1.8,0.9,2.5c0.7,0.7,1.4,1.1,2.1,1.1c0.7,0,1.4-0.3,2.1-1L60.9,387.4z"/>
			<path fill="#27A6D7" d="M69.2,394.2c-1,1-2.1,1.6-3.3,1.7c-1.2,0.1-2.3-0.4-3.2-1.3c-0.9-1-1.4-2-1.3-3.2
				c0.1-1.2,0.6-2.3,1.7-3.4l1.3-1.3c1-1,2.1-1.6,3.3-1.7c1.2-0.1,2.3,0.3,3.2,1.3c0.9,1,1.4,2.1,1.3,3.3c-0.1,1.2-0.6,2.4-1.6,3.4
				L69.2,394.2z M69.9,392.2c0.9-0.9,1.3-1.8,1.4-2.8c0.1-1-0.3-1.9-1-2.6c-0.8-0.8-1.6-1.1-2.6-1c-0.9,0.1-1.9,0.6-2.7,1.5
				l-1.3,1.3c-0.9,0.9-1.4,1.8-1.5,2.8s0.2,1.8,1,2.6c0.8,0.8,1.6,1.1,2.6,1c1-0.1,1.9-0.6,2.7-1.5L69.9,392.2z"/>
			<path fill="#27A6D7" d="M73.5,405.3l-0.7-0.7l2.3-11.6l0,0l-6.8,6.9l-0.7-0.7l8-8.1l0.7,0.7L74,403.4l0,0l6.8-6.9l0.7,0.7
				L73.5,405.3z"/>
			<path fill="#27A6D7" d="M88.2,405.2l-2.7-2.8l-7.4,7.5l-0.7-0.7l7.4-7.5l-2.8-2.9l0.6-0.6l6.2,6.3L88.2,405.2z"/>
			<path fill="#27A6D7" d="M90.1,414.4l-3.6-3.6l-3.3,3.4l4.1,4.2l-0.6,0.6L82,414l8-8.1l4.8,4.8l-0.6,0.6l-4.1-4.2l-3,3l3.6,3.6
				L90.1,414.4z"/>
			<path fill="#27A6D7" d="M95.2,418.1l5.6-1.2l0.8,0.8l-6.6,1.3l-1.3,6.9l-0.8-0.8l1.2-6l-5.8,1.2l-0.8-0.8l6.8-1.3l1.3-6.7
				l0.8,0.8L95.2,418.1z"/>
			<path fill="#27A6D7" d="M107.9,425.3l-2.7-2.8l-7.4,7.5l-0.7-0.7l7.4-7.5l-2.8-2.9l0.6-0.6l6.2,6.3L107.9,425.3z"/>
		</g>
		<g>
			<polygon fill="#90D5E1" points="125.6,429.6 124.9,363.2 148,386.2 			"/>
			<polygon fill="#5AC7DF" points="124.9,363.2 125.6,429.6 92,396.1 			"/>
			<polyline fill="#3DB7DD" points="58.4,362.7 92,396.1 124.9,363.2 			"/>
			<polygon fill="#27A6D7" points="58.4,362.7 124.9,363.2 101.8,340.1 			"/>
		</g>
		<g>
			<polygon fill="#3DB7DD" points="68.2,419.2 69.4,420.4 45.9,442.9 44.7,441.7 			"/>
			<polygon fill="#3DB7DD" points="60.5,416.2 72.4,428 72.4,416.2 60.5,416.2 			"/>
		</g>
	</g>
	<g>
		<g>
			<path fill="#DBB727" d="M406.1,418.9l3.6,3.6l-0.6,0.7l-7.9-8l2.6-2.7c0.8-0.9,1.7-1.3,2.5-1.4c0.8-0.1,1.6,0.2,2.3,1
				c0.4,0.4,0.7,0.9,0.8,1.5c0.1,0.6,0,1.2-0.3,1.8c0.6-0.4,1.2-0.5,1.7-0.4c0.5,0.1,1,0.4,1.5,0.9l0.7,0.8c0.2,0.3,0.5,0.4,0.7,0.6
				c0.3,0.1,0.5,0.2,0.8,0.2l0.1,0.1l-0.7,0.7c-0.3,0-0.5-0.1-0.8-0.3c-0.3-0.2-0.6-0.4-0.8-0.7l-0.7-0.7c-0.5-0.5-1-0.7-1.6-0.7
				s-1.2,0.3-1.7,0.9L406.1,418.9z M405.5,418.3l1.9-1.9c0.7-0.7,1.1-1.4,1.1-2c0-0.6-0.2-1.2-0.7-1.7c-0.5-0.5-1.1-0.8-1.7-0.7
				c-0.6,0-1.2,0.4-1.9,1.1l-2,2L405.5,418.3z"/>
			<path fill="#DBB727" d="M413.9,402.1l5.2,5.3c0.9,0.9,1.3,1.8,1.2,2.9c0,1-0.5,2-1.3,2.8c-0.8,0.8-1.7,1.3-2.8,1.3
				c-1,0-1.9-0.4-2.8-1.3l-5.2-5.3l0.6-0.7l5.2,5.3c0.7,0.7,1.4,1,2.2,1c0.8,0,1.5-0.3,2.1-1c0.6-0.7,1-1.4,1-2.2
				c0-0.8-0.3-1.6-1-2.3l-5.2-5.3L413.9,402.1z"/>
			<path fill="#DBB727" d="M423.8,407l4.1-4.2l0.5,0.6l-4.7,4.8l-7.9-8l0.6-0.7L423.8,407z"/>
			<path fill="#DBB727" d="M430.2,393.8l-3.5,3.6l3.3,3.3l4.1-4.2l0.5,0.6l-4.7,4.8l-7.9-8l4.7-4.8l0.6,0.6l-4.1,4.1l3,3l3.5-3.6
				L430.2,393.8z"/>
		</g>
		<g>
			<polygon fill="#E5D695" points="440.5,362.2 374.7,362.9 397.5,340 			"/>
			<polygon fill="#E5CF76" points="374.7,362.9 440.5,362.2 407.3,395.4 			"/>
			<polyline fill="#DAC258" points="374.2,428.7 407.3,395.4 374.7,362.9 			"/>
			<polygon fill="#DBB727" points="374.2,428.7 374.7,362.9 351.9,385.8 			"/>
		</g>
		<g>
			<polygon fill="#DBB727" points="430.3,420.8 431.5,419.6 453.9,442.9 452.7,444.1 			"/>
			<polygon fill="#DBB727" points="427.4,428.5 439.1,416.6 427.4,416.6 427.4,428.5 			"/>
		</g>
	</g>
</g>
</svg>
