<?xml version="1.0" encoding="utf-8"?>
<!-- Generator: Adobe Illustrator 18.1.0, SVG Export Plug-In . SVG Version: 6.00 Build 0)  -->
<svg version="1.1"
	 id="svg19250" xmlns:dc="http://purl.org/dc/elements/1.1/" xmlns:cc="http://creativecommons.org/ns#" xmlns:svg="http://www.w3.org/2000/svg" xmlns:rdf="http://www.w3.org/1999/02/22-rdf-syntax-ns#"
	 xmlns="http://www.w3.org/2000/svg" xmlns:xlink="http://www.w3.org/1999/xlink" x="0px" y="0px" viewBox="-46 14.5 500 375"
	 enable-background="new -46 14.5 500 375" xml:space="preserve">
<g id="layer1_1_" transform="translate(0,-1064)">
	<g id="g3008_1_" transform="matrix(0.53851907,0,0,0.53851907,-44.427823,778.15408)">
		<path id="rect18662_1_" fill="#C94F63" d="M693.3,557.9H229L-2.9,789.8l464.2,464.2l464.2-464.2L693.3,557.9z"/>
		<path id="path18706_1_" fill="#C94F63" d="M229.2,557.9L-2.7,789.8h464.2l0,0l-134-135.4l-95.8-95.8c0.3,0,0.5,0,0.9,0l-0.9-0.9
			h-2.4V557.9L229.2,557.9z"/>
		<path id="path18689_1_" fill="#D66B7B" d="M461.3,789.8h464.2L693.3,557.9H691c-0.3,0.3-0.5,0.7-0.9,0.9c0.3,0,0.5,0,0.9,0
			c-31.9,31.9-63.9,63.9-95.8,95.8C550.6,699.6,505.9,744.9,461.3,789.8L461.3,789.8L461.3,789.8z"/>
		<path id="path18687_1_" fill="#CC4756" d="M231.3,557.9l230,231.9c76.6-77.3,153.1-154.7,230-231.9
			C537.9,557.9,384.6,557.9,231.3,557.9L231.3,557.9z"/>
		<polygon id="polygon9_1_" fill="#A0233D" points="229.2,1022 461.3,1253.9 461.3,789.8 461.3,789.8 461.3,789.8 461.3,789.8 
			-2.9,789.8 		"/>
	</g>
</g>
</svg>
